<svg width="179" height="181" viewBox="0 0 179 181" fill="none" xmlns="http://www.w3.org/2000/svg">
<path d="M147.017 21.2596C160.195 15.4816 173.16 29.7751 166.127 42.3285L148.39 73.9879C145.239 79.6124 146.034 86.6212 150.366 91.3966L174.756 118.288C184.595 129.135 174.653 146.206 160.363 143.002L126.283 135.36C119.812 133.908 113.156 136.879 109.915 142.665L92.8519 173.122C85.7703 185.762 66.6588 182.012 64.8792 167.633L60.3154 130.758C59.5372 124.471 54.8929 119.351 48.7111 117.964L12.4556 109.834C-1.6823 106.664 -3.55504 87.2782 9.71451 81.4602L41.6875 67.4416C47.7612 64.7786 51.3653 58.4432 50.5507 51.8616L46.2608 17.1997C44.4621 2.66649 62.4195 -5.56709 72.2578 5.27996L96.6483 32.1713C100.98 36.9467 107.878 38.4203 113.782 35.8315L147.017 21.2596Z" fill="#CA662D"/>
</svg>
